<svg width="58" height="57" viewBox="0 0 58 57" fill="none" xmlns="http://www.w3.org/2000/svg">
<ellipse cx="29" cy="28.5" rx="29" ry="28.5" fill="#F1F1F1"/>
<path d="M17.177 37.1176L17.1812 37.1145C13.0202 32.6952 13.0964 25.7171 17.4098 21.4026C19.3147 19.4977 21.8439 18.3231 24.5213 18.0797C25.8713 17.9616 27.1371 17.3737 28.0982 16.4182L28.2887 16.2277C31.0295 13.4869 35.4551 13.4149 38.2849 16.0108L38.2902 16.0055L38.5124 16.2277L41.6237 19.339C44.4387 22.154 44.4387 26.7468 41.6237 29.5617L41.4332 29.7522C40.4808 30.7152 39.8882 31.9851 39.7718 33.3291C39.5389 36.0171 38.3643 38.5463 36.4594 40.4511C32.0571 44.8429 24.9033 44.8429 20.5116 40.4511L17.177 37.1176ZM17.2088 24.281C14.942 27.9161 15.3293 32.7365 18.3707 35.9652C18.437 36.0358 18.5051 36.106 18.575 36.1758C19.7031 37.3044 21.0943 38.1346 22.6232 38.5916C24.152 39.0487 25.7706 39.1182 27.3331 38.7939C28.4661 38.5595 29.5469 38.1205 30.5226 37.4986C31.0412 37.1706 31.2422 36.5039 30.9777 35.943L27.9617 29.6146C27.3657 28.3798 26.3648 27.3864 25.1255 26.7997L18.7654 23.8154C18.2046 23.5614 17.5368 23.7519 17.2088 24.281ZM31.4221 34.3556C31.5086 34.5392 31.6397 34.6982 31.8034 34.8181C31.9671 34.938 32.1582 35.0149 32.3593 35.042C32.5604 35.069 32.7651 35.0453 32.9546 34.9729C33.1442 34.9005 33.3126 34.7818 33.4445 34.6276C34.3383 33.2657 34.8801 31.7032 35.0213 30.0803C35.1694 28.3447 35.9314 26.715 37.1589 25.4769L37.3494 25.2864C37.8843 24.7527 38.3049 24.1156 38.5857 23.4141C38.8664 22.7125 39.0013 21.9612 38.9823 21.2058C38.9643 20.4427 38.7892 19.6915 38.4681 18.9991C38.1469 18.3067 37.6865 17.6878 37.1155 17.1812C34.9059 15.2182 31.5058 15.361 29.4009 17.4659L29.2739 17.5929C28.0369 18.8223 26.4079 19.5788 24.6705 19.7306C23.0831 19.8681 21.5592 20.3867 20.2258 21.2333C19.4216 21.7518 19.4956 22.9582 20.3634 23.3604L25.57 25.8261C25.5757 25.8268 25.5813 25.8286 25.5869 25.8314C25.5926 25.8342 25.5975 25.836 25.6018 25.8367C26.6283 26.3129 27.8347 26.133 28.6389 25.3287L29.4221 24.5456C29.9194 24.0482 30.1099 23.318 29.9088 22.6513C29.736 22.0777 29.7215 21.468 29.8668 20.8868C30.0121 20.3055 30.3118 19.7744 30.7343 19.3496C31.053 19.0291 31.4343 18.7777 31.8545 18.611C32.2746 18.4444 32.7246 18.3661 33.1764 18.381C33.6281 18.3959 34.0719 18.5036 34.4802 18.6976C34.8885 18.8916 35.2524 19.1675 35.5493 19.5083C36.6393 20.7359 36.6393 22.6196 35.5493 23.8577C34.6498 24.8737 33.2953 25.2017 32.11 24.8419C31.7793 24.7397 31.4269 24.73 31.0911 24.814C30.7552 24.8979 30.4488 25.0723 30.2052 25.3181L29.4326 26.0907C28.6284 26.8949 28.4485 28.1119 28.9353 29.1384C28.9353 29.1434 28.9374 29.1469 28.9416 29.149C28.9444 29.1511 28.9462 29.1546 28.9469 29.1596L31.4221 34.3556ZM31.7502 20.3443C31.0412 21.0534 31.0412 22.1963 31.7502 22.9053C32.4592 23.6143 33.6127 23.6143 34.3218 22.9159C35.0308 22.2069 35.0308 21.0534 34.3218 20.3443C33.9805 20.0038 33.5181 19.8125 33.036 19.8125C32.5539 19.8125 32.0915 20.0038 31.7502 20.3443Z" fill="#F24E1E"/>
</svg>
