<svg width="58" height="57" viewBox="0 0 58 57" fill="none" xmlns="http://www.w3.org/2000/svg">
<ellipse cx="29" cy="28.5" rx="29" ry="28.5" fill="#F1F1F1"/>
<path d="M28.5 40.875C25.8187 40.875 23.5445 39.9414 21.6773 38.0741C19.81 36.2069 18.8759 33.9322 18.875 31.25C18.875 29.4854 19.1674 27.7094 19.7523 25.9219C20.3371 24.1344 21.0933 22.5133 22.021 21.0585C22.9487 19.6038 23.9854 18.4176 25.1313 17.5C26.2771 16.5824 27.4 16.1241 28.5 16.125C29.6229 16.125 30.7518 16.5833 31.8866 17.5C33.0215 18.4167 34.0527 19.6028 34.9804 21.0585C35.908 22.5142 36.6643 24.1353 37.2491 25.9219C37.834 27.7085 38.1259 29.4845 38.125 31.25C38.125 33.9313 37.1914 36.206 35.3241 38.0741C33.4569 39.9423 31.1822 40.8759 28.5 40.875ZM28.5 38.125C30.4021 38.125 32.0237 37.4545 33.3647 36.1134C34.7058 34.7723 35.3759 33.1512 35.375 31.25C35.375 29.9438 35.1513 28.5688 34.704 27.125C34.2567 25.6813 33.6952 24.3466 33.0196 23.121C32.344 21.8954 31.6052 20.8811 30.8031 20.0781C30.001 19.2751 29.2333 18.8741 28.5 18.875C27.7896 18.875 27.0278 19.276 26.2148 20.0781C25.4017 20.8802 24.6569 21.8945 23.9804 23.121C23.3039 24.3475 22.7424 25.6822 22.296 27.125C21.8496 28.5678 21.6259 29.9428 21.625 31.25C21.625 33.1521 22.2955 34.7737 23.6366 36.1148C24.9777 37.4558 26.5988 38.1259 28.5 38.125ZM29.875 36.75C30.2646 36.75 30.5914 36.618 30.8554 36.354C31.1194 36.09 31.2509 35.7637 31.25 35.375C31.2491 34.9863 31.1171 34.66 30.854 34.396C30.5909 34.132 30.2646 34 29.875 34C28.7292 34 27.7552 33.599 26.9531 32.7969C26.151 31.9948 25.75 31.0208 25.75 29.875C25.75 29.4854 25.618 29.1591 25.354 28.896C25.09 28.6329 24.7637 28.5009 24.375 28.5C23.9863 28.4991 23.66 28.6311 23.396 28.896C23.132 29.1609 23 29.4873 23 29.875C23 31.7771 23.6705 33.3987 25.0116 34.7398C26.3527 36.0808 27.9738 36.7509 29.875 36.75Z" fill="#F24E1E"/>
</svg>
