<svg width="49" height="52" viewBox="0 0 49 52" fill="none" xmlns="http://www.w3.org/2000/svg">
<ellipse cx="24.5" cy="26" rx="24.5" ry="26" fill="#F1F1F1"/>
<path d="M19.2425 15.7895C19.4472 15.7895 19.6435 15.7083 19.7882 15.5638C19.9329 15.4193 20.0142 15.2233 20.0142 15.0189C20.0142 14.8145 19.9329 14.6185 19.7882 14.474C19.6435 14.3295 19.4472 14.2483 19.2425 14.2483C19.0379 14.2483 18.8416 14.3295 18.6969 14.474C18.5522 14.6185 18.4709 14.8145 18.4709 15.0189C18.4709 15.2233 18.5522 15.4193 18.6969 15.5638C18.8416 15.7083 19.0379 15.7895 19.2425 15.7895Z" fill="#F24E1E"/>
<path fill-rule="evenodd" clip-rule="evenodd" d="M20.0805 9.62464C21.0528 8.65367 22.7149 9.34106 22.7149 10.7143V11.9365H23.9387C25.3138 11.9365 26.0021 13.5964 25.0298 14.5673L23.6463 15.949L23.6177 15.9768L26.2845 20.4825C26.6001 21.0158 27.0693 21.4418 27.6309 21.7049C28.1925 21.968 28.8204 22.056 29.4328 21.9575L39.1401 20.3954C40.3979 20.1928 41.2544 21.6354 40.4735 22.641C39.725 23.605 39.3477 24.8372 39.0753 26.1858C38.0583 31.2171 33.7911 35.0948 28.5022 35.7329V37.3666H30.4313V38.9078H23.1007V37.3666H26.9589V35.8254C22.7813 35.8254 19.0805 33.8164 16.845 30.7332C15.0517 28.2595 15.3434 25.0808 16.0688 22.436L16.4507 21.0451C16.6449 20.3372 16.6925 19.5972 16.5904 18.8704L16.5418 18.872H14.5463C13.1712 18.872 12.4829 17.2121 13.4552 16.2411L20.0805 9.62464ZM23.9387 13.4777L22.8075 14.6074L22.2442 13.6572C22.1717 13.5361 22.0927 13.4191 22.0073 13.3066C22.2195 13.416 22.4595 13.4777 22.7149 13.4777H23.9387ZM21.1716 11.9365C21.1716 12.1939 21.2349 12.4374 21.3468 12.6501C20.9163 12.3235 20.4162 12.1007 19.8853 11.9989L21.1716 10.7143V11.9365ZM14.5463 17.3307L15.7771 16.1024C15.8079 16.2627 15.8512 16.423 15.9067 16.5832L16.1644 17.3307H14.5463ZM17.3659 16.0808C17.2084 15.6213 17.227 15.1197 17.4182 14.6731C17.6094 14.2265 17.9596 13.8665 18.4011 13.6627C18.8425 13.4589 19.344 13.4257 19.8085 13.5696C20.2731 13.7135 20.6677 14.0242 20.9162 14.4417L24.9565 21.267C25.43 22.0667 26.1337 22.7054 26.9759 23.0999C27.8181 23.4944 28.7598 23.6264 29.6782 23.4787L39.0521 21.9706C38.2172 23.1704 37.826 24.5775 37.5629 25.8814C37.3535 26.9124 36.984 27.9043 36.4679 28.8213C36.3953 28.8673 36.3308 28.9251 36.2773 28.9924C34.8166 30.8264 32.6521 31.9723 30.2492 31.9723C25.9203 31.9723 22.3291 28.2241 22.3291 23.4956C22.3291 23.2912 22.2478 23.0952 22.1031 22.9507C21.9584 22.8062 21.7621 22.725 21.5575 22.725C21.3528 22.725 21.1565 22.8062 21.0118 22.9507C20.8671 23.0952 20.7858 23.2912 20.7858 23.4956C20.7858 28.9823 24.9774 33.5135 30.2492 33.5135C30.5579 33.5135 30.8624 33.4981 31.1629 33.4673C29.8279 34.0092 28.4 34.2867 26.9589 34.2841C23.2836 34.2841 20.045 32.5187 18.0951 29.83C16.7324 27.9505 16.8605 25.3813 17.5573 22.8437L17.9392 21.452C18.3087 20.1055 18.2627 18.6791 17.8073 17.3592L17.3659 16.0808Z" fill="#F24E1E"/>
</svg>
