<svg width="154" height="221" viewBox="0 0 154 221" fill="none" xmlns="http://www.w3.org/2000/svg">
<g clip-path="url(#clip0_206_1958)">
<path d="M135.126 220.596C145.228 220.596 153.418 216.733 153.418 211.968C153.418 207.202 145.228 203.339 135.126 203.339C125.023 203.339 116.834 207.202 116.834 211.968C116.834 216.733 125.023 220.596 135.126 220.596Z" fill="#EBEBEB"/>
<path d="M10.4325 215.143L85.2565 172.371C85.4213 172.313 85.5641 172.207 85.6651 172.066C85.7661 171.924 85.8204 171.756 85.8204 171.583C85.8204 171.41 85.7661 171.241 85.6651 171.1C85.5641 170.959 85.4213 170.852 85.2565 170.795L78.3392 166.855C77.9108 166.641 77.4378 166.53 76.9582 166.53C76.4785 166.53 76.0056 166.641 75.5771 166.855L0.729243 209.588C0.564395 209.645 0.421603 209.752 0.320591 209.893C0.21958 210.034 0.165329 210.203 0.165329 210.376C0.165329 210.549 0.21958 210.718 0.320591 210.859C0.421603 211 0.564395 211.107 0.729243 211.164L7.67036 215.104C8.0957 215.324 8.56706 215.441 9.0467 215.448C9.52634 215.455 10.0009 215.351 10.4325 215.143Z" fill="#E0E0E0"/>
<path d="M83.2028 7.22961L15.7338 45.7943C14.7309 46.4423 13.8962 47.315 13.2974 48.3418C12.6986 49.3685 12.3525 50.5205 12.2872 51.7043V210.147C12.2872 212.322 13.8314 213.205 15.7338 212.117L83.2028 173.553C84.2071 172.906 85.0428 172.034 85.6418 171.007C86.2407 169.98 86.586 168.827 86.6495 167.643V9.19961C86.6495 7.02473 85.1132 6.14217 83.2028 7.22961Z" fill="#455A64"/>
<path d="M15.7338 45.7944L83.2028 7.22964C84.9062 6.25252 86.3152 6.85928 86.6017 8.55348C86.4426 7.48829 86.0574 6.46854 85.4716 5.56129C84.8858 4.65403 84.1125 3.87984 83.2028 3.28963L80.4009 1.71363C79.3328 1.17717 78.1519 0.897583 76.9542 0.897583C75.7565 0.897583 74.5756 1.17717 73.5075 1.71363L6.0306 40.2468C5.01432 40.8777 4.17626 41.7534 3.59483 42.7921L13.2981 48.3081C13.8793 47.2776 14.718 46.4121 15.7338 45.7944Z" fill="#37474F"/>
<path d="M2.56799 204.6C2.63334 205.784 2.97943 206.936 3.57824 207.963C4.17704 208.989 5.01172 209.862 6.01467 210.51L8.82455 212.086C9.79707 212.568 10.8614 212.84 11.9478 212.887C13.0342 212.933 14.1182 212.751 15.1289 212.354C13.5369 212.969 12.2712 212.062 12.2712 210.116V51.7044C12.3111 50.5155 12.6592 49.3568 13.2822 48.3396L3.57892 42.8236C2.96471 43.8331 2.61705 44.9794 2.56799 46.1569V204.6Z" fill="#263238"/>
<path d="M17.5885 66.9048L81.372 30.4598C82.5182 29.8137 83.4416 30.3416 83.4416 31.6418V148.912C83.4034 149.623 83.1959 150.314 82.8363 150.931C82.4766 151.547 81.9749 152.07 81.372 152.458L17.6124 188.903C16.4662 189.557 15.5428 189.029 15.5428 187.721V70.4508C15.579 69.7423 15.783 69.0522 16.1384 68.4363C16.4938 67.8203 16.9905 67.2957 17.5885 66.9048Z" fill="white"/>
<path d="M49.4683 32.5165C49.1162 32.7453 48.8233 33.0528 48.6132 33.4141C48.4031 33.7754 48.2815 34.1805 48.2584 34.5968C48.2584 35.3848 48.7997 35.6764 49.4683 35.2903C49.8217 35.0629 50.1156 34.7558 50.326 34.3942C50.5363 34.0325 50.657 33.6267 50.6782 33.21C50.6782 32.4456 50.137 32.1383 49.4683 32.5165Z" fill="#37474F"/>
<path d="M49.4683 176.287C48.0768 177.188 46.9193 178.401 46.0895 179.828C45.2597 181.254 44.7811 182.854 44.6923 184.498C44.6923 187.516 46.8336 188.745 49.4683 187.233C50.8594 186.331 52.0166 185.118 52.8463 183.691C53.676 182.265 54.1549 180.665 54.2443 179.022C54.2602 176.004 52.111 174.774 49.4683 176.287Z" fill="#37474F"/>
<path d="M38.0139 44.7147C37.3143 45.1745 36.7337 45.7905 36.3189 46.5133C35.9041 47.236 35.6667 48.0451 35.6259 48.8754C35.6259 50.4041 36.7084 51.0266 38.0139 50.2623C38.7208 49.8069 39.3092 49.1927 39.7311 48.4697C40.153 47.7468 40.3964 46.9354 40.4417 46.1016C40.4417 44.5729 39.3591 43.9504 38.0139 44.7147Z" fill="#37474F"/>
<path d="M43.96 44.1947C43.96 45.2191 44.756 45.6052 45.6873 45.0615L61.6073 35.9443C62.1005 35.6394 62.5139 35.2236 62.8141 34.7307C63.1142 34.2377 63.2926 33.6816 63.3346 33.1075C63.3346 32.091 62.5387 31.7049 61.6073 32.2486L45.6873 41.3658C45.1952 41.6699 44.7824 42.0845 44.4823 42.5759C44.1822 43.0674 44.0033 43.622 43.96 44.1947Z" fill="#37474F"/>
<path d="M7.94895 71.9796C8.51384 72.3438 8.98406 72.8347 9.32151 73.4125C9.65896 73.9902 9.85413 74.6386 9.8912 75.305C9.8912 76.5342 9.02355 77.0307 7.94895 76.416C7.38599 76.0505 6.91765 75.5591 6.58168 74.9815C6.2457 74.4039 6.05148 73.7562 6.01468 73.0907C6.01468 71.8693 6.88231 71.3728 7.94895 71.9796Z" fill="#37474F"/>
<path d="M7.94895 86.7783C8.51384 87.1425 8.98406 87.6334 9.32151 88.2112C9.65896 88.7889 9.85413 89.4373 9.8912 90.1036C9.8912 91.325 9.02355 91.8215 7.94895 91.2147C7.38599 90.8491 6.91765 90.3577 6.58168 89.7801C6.2457 89.2025 6.05148 88.5549 6.01468 87.8894C6.01468 86.6601 6.88231 86.1636 7.94895 86.7783Z" fill="#37474F"/>
<path d="M7.34401 72.279C7.90889 72.6433 8.37912 73.1342 8.71656 73.7119C9.05401 74.2897 9.24918 74.938 9.28625 75.6044C9.28625 76.8258 8.41861 77.3222 7.34401 76.7155C6.77912 76.3512 6.30889 75.8603 5.97145 75.2826C5.634 74.7048 5.43883 74.0565 5.40176 73.3901C5.40972 72.1608 6.27737 71.688 7.34401 72.279Z" fill="#455A64"/>
<path d="M7.34401 87.0698C7.90994 87.4348 8.38081 87.927 8.71831 88.5062C9.05581 89.0854 9.25041 89.7353 9.28625 90.403C9.28625 91.6244 8.41861 92.1209 7.34401 91.5062C6.77779 91.1434 6.30655 90.6528 5.96893 90.0748C5.63132 89.4967 5.43694 88.8477 5.40176 88.1809C5.40972 86.9595 6.27737 86.463 7.34401 87.0698Z" fill="#455A64"/>
<path d="M96.3527 35.3533C96.3527 34.0453 95.4294 33.5173 94.2831 34.1713L86.6495 38.529L30.5235 70.6163C29.9207 71.0041 29.4189 71.5275 29.0593 72.1437C28.6996 72.76 28.4922 73.4516 28.4539 74.1623V191.401C28.4539 192.709 29.3773 193.237 30.5235 192.583L86.6734 160.488L94.2831 156.138C94.886 155.75 95.3877 155.227 95.7474 154.611C96.107 153.994 96.3145 153.303 96.3527 152.592V35.3533Z" fill="white"/>
<path d="M97.1487 35.3534C97.1988 34.9582 97.1301 34.5572 96.9512 34.2005C96.7722 33.8438 96.491 33.5472 96.1427 33.3479C95.7944 33.1486 95.3945 33.0554 94.9929 33.0799C94.5914 33.1044 94.206 33.2456 93.8851 33.4858L86.6017 37.6543L30.1255 69.9623C29.3984 70.4167 28.7938 71.0393 28.3639 71.7765C27.934 72.5137 27.6917 73.3433 27.6579 74.1939V191.401C27.626 191.794 27.7024 192.189 27.879 192.543C28.0556 192.897 28.3258 193.197 28.6609 193.41C28.9459 193.574 29.2705 193.659 29.6002 193.655C30.0668 193.64 30.5218 193.507 30.9215 193.269L87.4375 160.961L94.705 156.808C95.428 156.349 96.0293 155.725 96.4587 154.989C96.888 154.253 97.1328 153.425 97.1726 152.576L97.1487 35.3534ZM86.6176 159.613L85.9649 159.991L30.1574 191.89C30.0636 191.961 29.9549 192.011 29.8392 192.035C29.7236 192.06 29.6038 192.058 29.4887 192.031C29.3852 191.968 29.2818 191.748 29.2818 191.385V74.1624C29.323 73.5902 29.4948 73.0348 29.7844 72.538C30.074 72.0411 30.4737 71.6158 30.9534 71.2941L86.7052 39.3801L94.6652 34.8176C94.759 34.7462 94.8677 34.6965 94.9834 34.6719C95.099 34.6474 95.2188 34.6487 95.3338 34.6757C95.4373 34.7388 95.5408 34.9594 95.5408 35.3219V152.592C95.4996 153.164 95.3277 153.72 95.0382 154.216C94.7486 154.713 94.3489 155.139 93.8692 155.46L86.6017 159.613H86.6176Z" fill="#FF6600"/>
<path d="M62.4033 62.5945C69.5673 58.5127 75.3383 61.8065 75.3383 69.9938C75.3383 78.1811 69.5435 88.1178 62.4033 92.1681C55.2632 96.2184 49.4683 92.9561 49.4683 84.7767C49.4683 76.5973 55.2632 66.6842 62.4033 62.5945Z" fill="#FF6600"/>
<path d="M62.4033 69.0245C64.7197 67.7007 66.5982 68.7724 66.5982 71.3885C66.5195 72.8298 66.0987 74.2323 65.3698 75.4824C64.641 76.7324 63.6246 77.7947 62.4033 78.583C60.087 79.9068 58.2084 78.8351 58.2084 76.219C58.2871 74.7778 58.708 73.3752 59.4368 72.1252C60.1657 70.8752 61.182 69.8129 62.4033 69.0245Z" fill="#FF6600"/>
<path d="M70.5782 83.1456C70.5782 78.7958 67.4977 77.0307 63.6849 79.2056L61.2969 80.5688C57.492 82.7437 54.4035 88.039 54.4035 92.3888V93.5629C56.6084 94.28 59.3785 93.8939 62.3635 92.1682C65.6702 90.149 68.4665 87.4078 70.5385 84.1542L70.5782 83.1456Z" fill="#FF6600"/>
<path opacity="0.7" d="M62.4033 69.0245C64.7197 67.7007 66.5982 68.7724 66.5982 71.3885C66.5195 72.8298 66.0987 74.2323 65.3698 75.4824C64.641 76.7324 63.6246 77.7947 62.4033 78.583C60.087 79.9068 58.2084 78.8351 58.2084 76.219C58.2871 74.7778 58.708 73.3752 59.4368 72.1252C60.1657 70.8752 61.182 69.8129 62.4033 69.0245Z" fill="white"/>
<path opacity="0.7" d="M70.5782 83.1456C70.5782 78.7958 67.4977 77.0307 63.6849 79.2056L61.2969 80.5688C57.492 82.7437 54.4035 88.039 54.4035 92.3888V93.5629C56.6084 94.28 59.3785 93.8939 62.3635 92.1682C65.6702 90.149 68.4665 87.4078 70.5385 84.1542L70.5782 83.1456Z" fill="white"/>
<path d="M37.3771 110.174L54.0215 100.663C54.8175 100.229 55.3985 100.576 55.3985 101.451V101.995C55.3733 102.468 55.2355 102.929 54.9961 103.34C54.7568 103.751 54.4229 104.1 54.0215 104.359L37.3771 113.87C36.6209 114.303 36 113.949 36 113.082V112.538C36.0258 112.065 36.164 111.604 36.4032 111.193C36.6425 110.782 36.9761 110.433 37.3771 110.174Z" fill="#FF6600"/>
<path opacity="0.1" d="M37.3771 110.174L54.0215 100.663C54.8175 100.229 55.3985 100.576 55.3985 101.451V101.995C55.3733 102.468 55.2355 102.929 54.9961 103.34C54.7568 103.751 54.4229 104.1 54.0215 104.359L37.3771 113.87C36.6209 114.303 36 113.949 36 113.082V112.538C36.0258 112.065 36.164 111.604 36.4032 111.193C36.6425 110.782 36.9761 110.433 37.3771 110.174Z" fill="black"/>
<path d="M36.6925 121.655L87.0475 92.8774C87.4216 92.6567 87.732 92.8301 87.732 93.2714V99.0868C87.718 99.3228 87.6489 99.5524 87.5301 99.7575C87.4114 99.9626 87.2461 100.138 87.0475 100.269L36.6925 129.047C36.3104 129.267 36 129.086 36 128.653V122.837C36.0137 122.6 36.0835 122.37 36.2038 122.164C36.3241 121.959 36.4915 121.785 36.6925 121.655Z" fill="#FF6600"/>
<path opacity="0.2" d="M36.6925 121.655L87.0475 92.8774C87.4216 92.6567 87.732 92.8301 87.732 93.2714V99.0868C87.718 99.3228 87.6489 99.5524 87.5301 99.7575C87.4114 99.9626 87.2461 100.138 87.0475 100.269L36.6925 129.047C36.3104 129.267 36 129.086 36 128.653V122.837C36.0137 122.6 36.0835 122.37 36.2038 122.164C36.3241 121.959 36.4915 121.785 36.6925 121.655Z" fill="white"/>
<path d="M37.3771 136.044L54.0215 126.533C54.8175 126.099 55.3985 126.454 55.3985 127.321V127.864C55.3739 128.338 55.2363 128.799 54.997 129.21C54.7576 129.621 54.4233 129.97 54.0215 130.228L37.3771 139.74C36.6209 140.181 36 139.826 36 138.952V138.408C36.0271 137.935 36.1657 137.474 36.4049 137.064C36.644 136.653 36.977 136.304 37.3771 136.044Z" fill="#FF6600"/>
<path opacity="0.1" d="M37.3771 136.044L54.0215 126.533C54.8175 126.099 55.3985 126.454 55.3985 127.321V127.864C55.3739 128.338 55.2363 128.799 54.997 129.21C54.7576 129.621 54.4233 129.97 54.0215 130.228L37.3771 139.74C36.6209 140.181 36 139.826 36 138.952V138.408C36.0271 137.935 36.1657 137.474 36.4049 137.064C36.644 136.653 36.977 136.304 37.3771 136.044Z" fill="black"/>
<path d="M36.6925 147.525L87.0475 118.747C87.4216 118.527 87.732 118.708 87.732 119.141V124.957C87.718 125.193 87.6489 125.422 87.5301 125.628C87.4114 125.833 87.2461 126.008 87.0475 126.139L36.6925 154.917C36.3104 155.137 36 154.964 36 154.523V148.707C36.0137 148.47 36.0835 148.24 36.2038 148.034C36.3241 147.829 36.4915 147.655 36.6925 147.525Z" fill="#FF6600"/>
<path opacity="0.2" d="M36.6925 147.525L87.0475 118.747C87.4216 118.527 87.732 118.708 87.732 119.141V124.957C87.718 125.193 87.6489 125.422 87.5301 125.628C87.4114 125.833 87.2461 126.008 87.0475 126.139L36.6925 154.917C36.3104 155.137 36 154.964 36 154.523V148.707C36.0137 148.47 36.0835 148.24 36.2038 148.034C36.3241 147.829 36.4915 147.655 36.6925 147.525Z" fill="white"/>
<path d="M56.7756 150.827L76.6756 139.472C77.4716 139.031 78.0606 139.385 78.0606 140.26V146.343C78.0345 146.817 77.8955 147.279 77.6547 147.69C77.414 148.101 77.0785 148.449 76.6756 148.707L56.7756 160.07C55.9796 160.504 55.3985 160.149 55.3985 159.282V153.191C55.4262 152.718 55.5651 152.258 55.8042 151.847C56.0433 151.437 56.3759 151.088 56.7756 150.827Z" fill="#FF6600"/>
<path opacity="0.1" d="M56.7756 150.827L76.6756 139.472C77.4716 139.031 78.0606 139.385 78.0606 140.26V146.343C78.0345 146.817 77.8955 147.279 77.6547 147.69C77.414 148.101 77.0785 148.449 76.6756 148.707L56.7756 160.07C55.9796 160.504 55.3985 160.149 55.3985 159.282V153.191C55.4262 152.718 55.5651 152.258 55.8042 151.847C56.0433 151.437 56.3759 151.088 56.7756 150.827Z" fill="black"/>
<path d="M103.899 125.154C103.899 125.154 94.1239 111.805 93.5508 110.182C93.0971 108.984 93.5508 107.203 93.6941 106.376C93.8374 105.548 93.9647 103.705 94.108 103.224C94.3468 102.326 93.1767 102.507 92.516 103.326C91.8553 104.146 91.6324 105.785 91.2902 106.053C90.9479 106.321 88.345 102.562 86.9838 100.828C85.6226 99.0947 84.7709 98.0388 83.9351 98.6849C83.3381 99.1499 83.7839 100.159 84.7709 101.64C85.3474 102.438 85.8789 103.266 86.3629 104.122C86.5142 104.445 85.7023 104.469 85.2645 105.139C84.9222 105.659 85.2645 106.502 84.7869 106.904C84.4929 107.125 84.2915 107.446 84.2211 107.805C84.1506 108.164 84.216 108.536 84.4048 108.85C85.2908 110.228 86.4335 111.426 87.7719 112.38C89.2365 113.381 89.8255 113.736 90.6932 115.099C91.5608 116.462 99.3457 130.386 99.871 131.221C100.396 132.057 101.407 133.759 102.944 133.806C104.48 133.853 117.057 123.137 117.701 122.601C119.771 120.891 120.432 120.647 120.782 122.183C120.903 122.729 120.993 123.282 121.053 123.838C121.299 125.792 122.645 132.774 122.645 132.774C122.645 132.774 129.013 135.823 134.242 134.35C139.472 132.876 141.239 130.678 141.239 130.678L138.62 126.454C139.329 124.713 142.6 117.652 143.659 112.711L127.261 110.087C126.927 110.016 126.386 109.882 125.669 109.701C124.77 109.465 122.485 108.685 120.758 110.182C115.122 115.044 103.915 125.154 103.915 125.154" fill="#FFA8A7"/>
<path d="M136.407 207.059L133.47 211.101C134.805 211.718 136.264 212.028 137.737 212.007C140.372 212.102 141.096 211.219 141.191 211.046C141.637 210.1 140.945 208.398 140.754 206.932L136.407 207.059Z" fill="#37474F"/>
<path d="M133.637 209.163C133.637 209.163 130.071 208.934 127.612 208.635C125.152 208.335 123.202 209.517 123.775 210.518C124.348 211.519 125.709 212.354 127.827 213.055C129.633 213.662 131.807 214.095 133.685 214.631C135.564 215.167 136.869 215.868 137.96 215.49C139.178 215.073 139.703 214.592 139.599 213.709C139.334 212.454 139.004 211.213 138.612 209.99L133.637 209.163Z" fill="#37474F"/>
<path d="M141.191 203C141.191 203 140.746 206.672 140.714 207.46C140.682 208.248 137.092 208.501 136.407 207.059L136.296 202.567L141.191 203Z" fill="#F28F8F"/>
<path d="M137.578 205.254L138.859 210.833C138.859 210.833 138.979 211.511 136.049 211.944C133.12 212.378 128.519 210.423 127.731 210.029C126.943 209.635 126.855 208.839 129.737 208.997C132.618 209.155 133.637 209.163 133.637 209.163L132.698 206.696L137.578 205.254Z" fill="#FFA8A7"/>
<path d="M143.611 112.664L145.641 112.105C145.641 112.105 149.884 125.398 150.353 126.683C150.823 127.967 151.356 129.322 150.441 130.906C149.35 132.79 143.611 140.362 143.611 140.362L139.966 136.832L144.105 129.33L140.443 122.002L143.611 112.664Z" fill="#F28F8F"/>
<path d="M122.764 95.399C122.288 94.5146 122.047 93.5253 122.062 92.5234C122.077 91.5216 122.349 90.5399 122.852 89.6702C124.873 85.9587 129.379 84.1542 134.744 84.8398C137.227 85.1629 140.157 87.2038 141.757 90.2533C143.524 93.6339 143.691 100.442 144.145 103.019L122.764 95.399Z" fill="#37474F"/>
<path d="M122.621 96.8568C122.621 96.8568 121.347 99.2602 121.57 99.4809C121.9 99.6717 122.261 99.805 122.637 99.8749L122.621 96.8568Z" fill="#FFA8A7"/>
<path d="M126.489 89.2604C125.104 90.1508 122.716 91.7899 122.613 97.1877C122.501 102.704 123.297 104.524 124.125 105.162C124.682 105.596 127.954 105.375 129.355 105.052C130.756 104.729 134.792 102.751 136.248 99.7487C137.96 96.2184 137.609 91.0807 135.07 89.5047C133.778 88.7481 132.312 88.3288 130.812 88.2861C129.311 88.2434 127.823 88.5786 126.489 89.2604Z" fill="#FFA8A7"/>
<path d="M141.191 130.646C143.643 134.429 145.967 137.738 146.477 142.009C147.528 150.985 144.089 161.244 143.349 167.887C144.741 169.777 145.543 172.028 145.657 174.364C145.657 177.115 141.191 203 141.191 203C141.191 203 137.944 203.978 136.296 202.567L133.231 154.948L134.823 149.148L141.191 130.646Z" fill="#FF6600"/>
<path opacity="0.2" d="M141.191 130.646C143.643 134.429 145.967 137.738 146.477 142.009C147.528 150.985 144.089 161.244 143.349 167.887C144.741 169.777 145.543 172.028 145.657 174.364C145.657 177.115 141.191 203 141.191 203C141.191 203 137.944 203.978 136.296 202.567L133.231 154.948L134.823 149.148L141.191 130.646Z" fill="black"/>
<path d="M133.231 154.948L134.823 149.148C137.872 148.354 140.812 147.198 143.579 145.705C143.579 145.705 141.924 148.691 137.164 150.33L134.704 157.777L134.497 174.837L133.231 154.948Z" fill="#FF6600"/>
<path opacity="0.3" d="M133.231 154.948L134.823 149.148C137.872 148.354 140.812 147.198 143.579 145.705C143.579 145.705 141.924 148.691 137.164 150.33L134.704 157.777L134.497 174.837L133.231 154.948Z" fill="black"/>
<path d="M141.191 130.646C142.505 132.774 145.641 136.399 144.972 139.889C144.176 144.113 141.868 147.084 134.847 149.148L128.256 172.788C128.256 172.788 131.687 175.94 132.738 178.99C133.789 182.04 137.578 205.27 137.578 205.27C137.578 205.27 136.399 207.169 132.698 206.712C132.698 206.712 119.795 177.556 118.887 175.657C117.786 173.734 117.4 171.489 117.797 169.313C118.203 166.256 122.573 132.79 122.573 132.79L141.191 130.646Z" fill="#FF6600"/>
<path opacity="0.2" d="M141.191 130.646C142.505 132.774 145.641 136.399 144.972 139.889C144.176 144.113 141.868 147.084 134.847 149.148L128.256 172.788C128.256 172.788 131.687 175.94 132.738 178.99C133.789 182.04 137.578 205.27 137.578 205.27C137.578 205.27 136.399 207.169 132.698 206.712C132.698 206.712 119.795 177.556 118.887 175.657C117.786 173.734 117.4 171.489 117.797 169.313C118.203 166.256 122.573 132.79 122.573 132.79L141.191 130.646Z" fill="black"/>
<path d="M143.611 112.664L127.214 110.04C126.879 109.969 126.338 109.835 125.622 109.654C125.622 109.654 124.921 119.835 120.71 122.167C120.814 122.656 120.901 123.2 120.981 123.822C121.228 125.776 122.573 132.758 122.573 132.758C122.573 132.758 128.941 135.808 134.171 134.334C139.4 132.861 141.168 130.662 141.168 130.662L138.549 126.438C139.281 124.681 142.576 117.621 143.611 112.664Z" fill="#FF6600"/>
<path opacity="0.7" d="M143.611 112.664L127.214 110.04C126.879 109.969 126.338 109.835 125.622 109.654C125.622 109.654 124.921 119.835 120.71 122.167C120.814 122.656 120.901 123.2 120.981 123.822C121.228 125.776 122.573 132.758 122.573 132.758C122.573 132.758 128.941 135.808 134.171 134.334C139.4 132.861 141.168 130.662 141.168 130.662L138.549 126.438C139.281 124.681 142.576 117.621 143.611 112.664Z" fill="white"/>
<path d="M139.289 124.76C137.111 126.054 134.83 127.169 132.467 128.093C134.611 128.051 136.711 127.476 138.573 126.423L139.289 124.76Z" fill="#FF6600"/>
<path d="M126.083 89.5284C126.083 89.5284 125.287 94.6504 127.166 97.6605C127.166 97.6605 127.866 95.6196 129.61 96.0057C131.353 96.3919 131.448 98.6692 130.223 99.9457C129.911 100.304 129.504 100.568 129.048 100.707C128.591 100.846 128.105 100.856 127.643 100.734C127.643 100.734 127.365 104.437 127.214 107.542C127.062 110.647 126.235 117.416 129.761 120.15C133.287 122.884 142.139 123.846 146.286 118.109C148.594 114.918 145.53 109.276 144.105 102.948C142.791 97.1326 142.051 88.5119 135.818 87.125C129.586 85.7381 126.083 89.5284 126.083 89.5284Z" fill="#37474F"/>
<g clip-path="url(#clip1_206_1958)">
<mask id="mask0_206_1958" style="mask-type:luminance" maskUnits="userSpaceOnUse" x="0" y="0" width="154" height="221">
<path d="M154 0H0V221H154V0Z" fill="white"/>
</mask>
<g mask="url(#mask0_206_1958)">
<path d="M135.126 220.596C145.228 220.596 153.418 216.733 153.418 211.968C153.418 207.202 145.228 203.339 135.126 203.339C125.023 203.339 116.834 207.202 116.834 211.968C116.834 216.733 125.023 220.596 135.126 220.596Z" fill="#EBEBEB"/>
<path d="M10.4325 215.143L85.2565 172.371C85.4213 172.313 85.5641 172.207 85.6651 172.066C85.7661 171.924 85.8204 171.756 85.8204 171.583C85.8204 171.41 85.7661 171.241 85.6651 171.1C85.5641 170.959 85.4213 170.852 85.2565 170.795L78.3392 166.855C77.9108 166.641 77.4378 166.53 76.9582 166.53C76.4785 166.53 76.0056 166.641 75.5771 166.855L0.729243 209.588C0.564395 209.645 0.421603 209.752 0.320591 209.893C0.21958 210.034 0.165329 210.203 0.165329 210.376C0.165329 210.549 0.21958 210.718 0.320591 210.859C0.421603 211 0.564395 211.107 0.729243 211.164L7.67036 215.104C8.0957 215.324 8.56706 215.441 9.0467 215.448C9.52634 215.455 10.0009 215.351 10.4325 215.143Z" fill="#E0E0E0"/>
<path d="M83.2028 7.22961L15.7338 45.7943C14.7309 46.4423 13.8962 47.315 13.2974 48.3418C12.6986 49.3685 12.3525 50.5205 12.2872 51.7043V210.147C12.2872 212.322 13.8314 213.205 15.7338 212.117L83.2028 173.553C84.2071 172.906 85.0428 172.034 85.6418 171.007C86.2407 169.98 86.586 168.827 86.6495 167.643V9.19961C86.6495 7.02473 85.1132 6.14217 83.2028 7.22961Z" fill="#455A64"/>
<path d="M15.7338 45.7944L83.2028 7.22964C84.9062 6.25252 86.3152 6.85928 86.6017 8.55348C86.4426 7.48829 86.0574 6.46854 85.4716 5.56129C84.8858 4.65403 84.1125 3.87984 83.2028 3.28963L80.4009 1.71363C79.3328 1.17717 78.1519 0.897583 76.9542 0.897583C75.7565 0.897583 74.5756 1.17717 73.5075 1.71363L6.0306 40.2468C5.01432 40.8777 4.17626 41.7534 3.59483 42.7921L13.2981 48.3081C13.8793 47.2776 14.718 46.4121 15.7338 45.7944Z" fill="#37474F"/>
<path d="M2.56799 204.6C2.63334 205.784 2.97943 206.936 3.57824 207.963C4.17704 208.989 5.01172 209.862 6.01467 210.51L8.82455 212.086C9.79707 212.568 10.8614 212.84 11.9478 212.887C13.0342 212.933 14.1182 212.751 15.1289 212.354C13.5369 212.969 12.2712 212.062 12.2712 210.116V51.7044C12.3111 50.5155 12.6592 49.3568 13.2822 48.3396L3.57892 42.8236C2.96471 43.8331 2.61705 44.9794 2.56799 46.1569V204.6Z" fill="#263238"/>
<path d="M17.5885 66.9048L81.372 30.4598C82.5182 29.8137 83.4416 30.3416 83.4416 31.6418V148.912C83.4034 149.623 83.1959 150.314 82.8363 150.931C82.4766 151.547 81.9749 152.07 81.372 152.458L17.6124 188.903C16.4662 189.557 15.5428 189.029 15.5428 187.721V70.4508C15.579 69.7423 15.783 69.0522 16.1384 68.4363C16.4938 67.8203 16.9905 67.2957 17.5885 66.9048Z" fill="white"/>
<path d="M49.4683 32.5165C49.1162 32.7453 48.8233 33.0528 48.6132 33.4141C48.4031 33.7754 48.2815 34.1805 48.2584 34.5968C48.2584 35.3848 48.7997 35.6764 49.4683 35.2903C49.8217 35.0629 50.1156 34.7558 50.326 34.3942C50.5363 34.0325 50.657 33.6267 50.6782 33.21C50.6782 32.4456 50.137 32.1383 49.4683 32.5165Z" fill="#37474F"/>
<path d="M49.4683 176.287C48.0768 177.188 46.9193 178.401 46.0895 179.828C45.2597 181.254 44.7811 182.854 44.6923 184.498C44.6923 187.516 46.8336 188.745 49.4683 187.233C50.8594 186.331 52.0166 185.118 52.8463 183.691C53.676 182.265 54.1549 180.665 54.2443 179.022C54.2602 176.004 52.111 174.774 49.4683 176.287Z" fill="#37474F"/>
<path d="M38.0139 44.7147C37.3143 45.1745 36.7337 45.7905 36.3189 46.5133C35.9041 47.236 35.6667 48.0451 35.6259 48.8754C35.6259 50.4041 36.7084 51.0266 38.0139 50.2623C38.7208 49.8069 39.3092 49.1927 39.7311 48.4697C40.153 47.7468 40.3964 46.9354 40.4417 46.1016C40.4417 44.5729 39.3591 43.9504 38.0139 44.7147Z" fill="#37474F"/>
<path d="M43.96 44.1947C43.96 45.2191 44.756 45.6052 45.6873 45.0615L61.6073 35.9443C62.1005 35.6394 62.5139 35.2236 62.8141 34.7307C63.1142 34.2377 63.2926 33.6816 63.3346 33.1075C63.3346 32.091 62.5387 31.7049 61.6073 32.2486L45.6873 41.3658C45.1952 41.6699 44.7824 42.0845 44.4823 42.5759C44.1822 43.0674 44.0033 43.622 43.96 44.1947Z" fill="#37474F"/>
<path d="M7.94895 71.9796C8.51384 72.3438 8.98406 72.8347 9.32151 73.4125C9.65896 73.9902 9.85413 74.6386 9.8912 75.305C9.8912 76.5342 9.02355 77.0307 7.94895 76.416C7.38599 76.0505 6.91765 75.5591 6.58168 74.9815C6.2457 74.4039 6.05148 73.7562 6.01468 73.0907C6.01468 71.8693 6.88231 71.3728 7.94895 71.9796Z" fill="#37474F"/>
<path d="M7.94895 86.7783C8.51384 87.1425 8.98406 87.6334 9.32151 88.2112C9.65896 88.7889 9.85413 89.4373 9.8912 90.1036C9.8912 91.325 9.02355 91.8215 7.94895 91.2147C7.38599 90.8491 6.91765 90.3577 6.58168 89.7801C6.2457 89.2025 6.05148 88.5549 6.01468 87.8894C6.01468 86.6601 6.88231 86.1636 7.94895 86.7783Z" fill="#37474F"/>
<path d="M7.34401 72.279C7.90889 72.6433 8.37912 73.1342 8.71656 73.7119C9.05401 74.2897 9.24918 74.938 9.28625 75.6044C9.28625 76.8258 8.41861 77.3222 7.34401 76.7155C6.77912 76.3512 6.30889 75.8603 5.97145 75.2826C5.634 74.7048 5.43883 74.0565 5.40176 73.3901C5.40972 72.1608 6.27737 71.688 7.34401 72.279Z" fill="#455A64"/>
<path d="M7.34401 87.0698C7.90994 87.4348 8.38081 87.927 8.71831 88.5062C9.05581 89.0854 9.25041 89.7353 9.28625 90.403C9.28625 91.6244 8.41861 92.1209 7.34401 91.5062C6.77779 91.1434 6.30655 90.6528 5.96893 90.0748C5.63132 89.4967 5.43694 88.8477 5.40176 88.1809C5.40972 86.9595 6.27737 86.463 7.34401 87.0698Z" fill="#455A64"/>
<path d="M96.3527 35.3533C96.3527 34.0453 95.4294 33.5173 94.2831 34.1713L86.6495 38.529L30.5235 70.6163C29.9207 71.0041 29.4189 71.5275 29.0593 72.1437C28.6996 72.76 28.4922 73.4516 28.4539 74.1623V191.401C28.4539 192.709 29.3773 193.237 30.5235 192.583L86.6734 160.488L94.2831 156.138C94.886 155.75 95.3877 155.227 95.7474 154.611C96.107 153.994 96.3145 153.303 96.3527 152.592V35.3533Z" fill="white"/>
<path d="M97.1487 35.3534C97.1988 34.9582 97.1301 34.5572 96.9512 34.2005C96.7722 33.8438 96.491 33.5472 96.1427 33.3479C95.7944 33.1486 95.3945 33.0554 94.9929 33.0799C94.5914 33.1044 94.206 33.2456 93.8851 33.4858L86.6017 37.6543L30.1255 69.9623C29.3984 70.4167 28.7938 71.0393 28.3639 71.7765C27.934 72.5137 27.6917 73.3433 27.6579 74.1939V191.401C27.626 191.794 27.7024 192.189 27.879 192.543C28.0556 192.897 28.3258 193.197 28.6609 193.41C28.9459 193.574 29.2705 193.659 29.6002 193.655C30.0668 193.64 30.5218 193.507 30.9215 193.269L87.4375 160.961L94.705 156.808C95.428 156.349 96.0293 155.725 96.4587 154.989C96.888 154.253 97.1328 153.425 97.1726 152.576L97.1487 35.3534ZM86.6176 159.613L85.9649 159.991L30.1574 191.89C30.0636 191.961 29.9549 192.011 29.8392 192.035C29.7236 192.06 29.6038 192.058 29.4887 192.031C29.3852 191.968 29.2818 191.748 29.2818 191.385V74.1624C29.323 73.5902 29.4948 73.0348 29.7844 72.538C30.074 72.0411 30.4737 71.6158 30.9534 71.2941L86.7052 39.3801L94.6652 34.8176C94.759 34.7462 94.8677 34.6965 94.9834 34.6719C95.099 34.6474 95.2188 34.6487 95.3338 34.6757C95.4373 34.7388 95.5408 34.9594 95.5408 35.3219V152.592C95.4996 153.164 95.3277 153.72 95.0382 154.216C94.7486 154.713 94.3489 155.139 93.8692 155.46L86.6017 159.613H86.6176Z" fill="#FF6600"/>
<path d="M62.4033 62.5945C69.5673 58.5127 75.3383 61.8065 75.3383 69.9938C75.3383 78.1811 69.5435 88.1178 62.4033 92.1681C55.2632 96.2184 49.4683 92.9561 49.4683 84.7767C49.4683 76.5973 55.2632 66.6842 62.4033 62.5945Z" fill="#FF6600"/>
<path d="M62.4033 69.0245C64.7197 67.7007 66.5982 68.7724 66.5982 71.3885C66.5195 72.8298 66.0987 74.2323 65.3698 75.4824C64.641 76.7324 63.6246 77.7947 62.4033 78.583C60.087 79.9068 58.2084 78.8351 58.2084 76.219C58.2871 74.7778 58.708 73.3752 59.4368 72.1252C60.1657 70.8752 61.182 69.8129 62.4033 69.0245Z" fill="#FF6600"/>
<path d="M70.5782 83.1456C70.5782 78.7958 67.4977 77.0307 63.6849 79.2056L61.2969 80.5688C57.492 82.7437 54.4035 88.039 54.4035 92.3888V93.5629C56.6084 94.28 59.3785 93.8939 62.3635 92.1682C65.6702 90.149 68.4665 87.4078 70.5385 84.1542L70.5782 83.1456Z" fill="#FF6600"/>
<path opacity="0.7" d="M62.4033 69.0245C64.7197 67.7007 66.5982 68.7724 66.5982 71.3885C66.5195 72.8298 66.0987 74.2323 65.3698 75.4824C64.641 76.7324 63.6246 77.7947 62.4033 78.583C60.087 79.9068 58.2084 78.8351 58.2084 76.219C58.2871 74.7778 58.708 73.3752 59.4368 72.1252C60.1657 70.8752 61.182 69.8129 62.4033 69.0245Z" fill="white"/>
<path opacity="0.7" d="M70.5782 83.1456C70.5782 78.7958 67.4977 77.0307 63.6849 79.2056L61.2969 80.5688C57.492 82.7437 54.4035 88.039 54.4035 92.3888V93.5629C56.6084 94.28 59.3785 93.8939 62.3635 92.1682C65.6702 90.149 68.4665 87.4078 70.5385 84.1542L70.5782 83.1456Z" fill="white"/>
<path d="M37.3771 110.174L54.0215 100.663C54.8175 100.229 55.3985 100.576 55.3985 101.451V101.995C55.3733 102.468 55.2355 102.929 54.9961 103.34C54.7568 103.751 54.4229 104.1 54.0215 104.359L37.3771 113.87C36.6209 114.303 36 113.949 36 113.082V112.538C36.0258 112.065 36.164 111.604 36.4032 111.193C36.6425 110.782 36.9761 110.433 37.3771 110.174Z" fill="#FF6600"/>
<path opacity="0.1" d="M37.3771 110.174L54.0215 100.663C54.8175 100.229 55.3985 100.576 55.3985 101.451V101.995C55.3733 102.468 55.2355 102.929 54.9961 103.34C54.7568 103.751 54.4229 104.1 54.0215 104.359L37.3771 113.87C36.6209 114.303 36 113.949 36 113.082V112.538C36.0258 112.065 36.164 111.604 36.4032 111.193C36.6425 110.782 36.9761 110.433 37.3771 110.174Z" fill="black"/>
<path d="M36.6925 121.655L87.0475 92.8774C87.4216 92.6567 87.732 92.8301 87.732 93.2714V99.0868C87.718 99.3228 87.6489 99.5524 87.5301 99.7575C87.4114 99.9626 87.2461 100.138 87.0475 100.269L36.6925 129.047C36.3104 129.267 36 129.086 36 128.653V122.837C36.0137 122.6 36.0835 122.37 36.2038 122.164C36.3241 121.959 36.4915 121.785 36.6925 121.655Z" fill="#FF6600"/>
<path opacity="0.2" d="M36.6925 121.655L87.0475 92.8774C87.4216 92.6567 87.732 92.8301 87.732 93.2714V99.0868C87.718 99.3228 87.6489 99.5524 87.5301 99.7575C87.4114 99.9626 87.2461 100.138 87.0475 100.269L36.6925 129.047C36.3104 129.267 36 129.086 36 128.653V122.837C36.0137 122.6 36.0835 122.37 36.2038 122.164C36.3241 121.959 36.4915 121.785 36.6925 121.655Z" fill="white"/>
<path d="M37.3771 136.044L54.0215 126.533C54.8175 126.099 55.3985 126.454 55.3985 127.321V127.864C55.3739 128.338 55.2363 128.799 54.997 129.21C54.7576 129.621 54.4233 129.97 54.0215 130.228L37.3771 139.74C36.6209 140.181 36 139.826 36 138.952V138.408C36.0271 137.935 36.1657 137.474 36.4049 137.064C36.644 136.653 36.977 136.304 37.3771 136.044Z" fill="#FF6600"/>
<path opacity="0.1" d="M37.3771 136.044L54.0215 126.533C54.8175 126.099 55.3985 126.454 55.3985 127.321V127.864C55.3739 128.338 55.2363 128.799 54.997 129.21C54.7576 129.621 54.4233 129.97 54.0215 130.228L37.3771 139.74C36.6209 140.181 36 139.826 36 138.952V138.408C36.0271 137.935 36.1657 137.474 36.4049 137.064C36.644 136.653 36.977 136.304 37.3771 136.044Z" fill="black"/>
<path d="M36.6925 147.525L87.0475 118.747C87.4216 118.527 87.732 118.708 87.732 119.141V124.957C87.718 125.193 87.6489 125.422 87.5301 125.628C87.4114 125.833 87.2461 126.008 87.0475 126.139L36.6925 154.917C36.3104 155.137 36 154.964 36 154.523V148.707C36.0137 148.47 36.0835 148.24 36.2038 148.034C36.3241 147.829 36.4915 147.655 36.6925 147.525Z" fill="#FF6600"/>
<path opacity="0.2" d="M36.6925 147.525L87.0475 118.747C87.4216 118.527 87.732 118.708 87.732 119.141V124.957C87.718 125.193 87.6489 125.422 87.5301 125.628C87.4114 125.833 87.2461 126.008 87.0475 126.139L36.6925 154.917C36.3104 155.137 36 154.964 36 154.523V148.707C36.0137 148.47 36.0835 148.24 36.2038 148.034C36.3241 147.829 36.4915 147.655 36.6925 147.525Z" fill="white"/>
<path d="M56.7756 150.827L76.6756 139.472C77.4716 139.031 78.0606 139.385 78.0606 140.26V146.343C78.0345 146.817 77.8955 147.279 77.6547 147.69C77.414 148.101 77.0785 148.449 76.6756 148.707L56.7756 160.07C55.9796 160.504 55.3985 160.149 55.3985 159.282V153.191C55.4262 152.718 55.5651 152.258 55.8042 151.847C56.0433 151.437 56.3759 151.088 56.7756 150.827Z" fill="#FF6600"/>
<path opacity="0.1" d="M56.7756 150.827L76.6756 139.472C77.4716 139.031 78.0606 139.385 78.0606 140.26V146.343C78.0345 146.817 77.8955 147.279 77.6547 147.69C77.414 148.101 77.0785 148.449 76.6756 148.707L56.7756 160.07C55.9796 160.504 55.3985 160.149 55.3985 159.282V153.191C55.4262 152.718 55.5651 152.258 55.8042 151.847C56.0433 151.437 56.3759 151.088 56.7756 150.827Z" fill="black"/>
<path d="M103.899 125.154C103.899 125.154 94.1239 111.805 93.5508 110.182C93.0971 108.984 93.5508 107.203 93.6941 106.376C93.8374 105.548 93.9647 103.705 94.108 103.224C94.3468 102.326 93.1767 102.507 92.516 103.326C91.8553 104.146 91.6324 105.785 91.2902 106.053C90.9479 106.321 88.345 102.562 86.9838 100.828C85.6226 99.0947 84.7709 98.0388 83.9351 98.6849C83.3381 99.1499 83.7839 100.159 84.7709 101.64C85.3474 102.438 85.8789 103.266 86.3629 104.122C86.5142 104.445 85.7023 104.469 85.2645 105.139C84.9222 105.659 85.2645 106.502 84.7869 106.904C84.4929 107.125 84.2915 107.446 84.2211 107.805C84.1506 108.164 84.216 108.536 84.4048 108.85C85.2908 110.228 86.4335 111.426 87.7719 112.38C89.2365 113.381 89.8255 113.736 90.6932 115.099C91.5608 116.462 99.3457 130.386 99.871 131.221C100.396 132.057 101.407 133.759 102.944 133.806C104.48 133.853 117.057 123.137 117.701 122.601C119.771 120.891 120.432 120.647 120.782 122.183C120.903 122.729 120.993 123.282 121.053 123.838C121.299 125.792 122.645 132.774 122.645 132.774C122.645 132.774 129.013 135.823 134.242 134.35C139.472 132.876 141.239 130.678 141.239 130.678L138.62 126.454C139.329 124.713 142.6 117.652 143.659 112.711L127.261 110.087C126.927 110.016 126.386 109.882 125.669 109.701C124.77 109.465 122.485 108.685 120.758 110.182C115.122 115.044 103.915 125.154 103.915 125.154" fill="#FFA8A7"/>
<path d="M136.407 207.059L133.47 211.101C134.805 211.718 136.264 212.028 137.737 212.007C140.372 212.102 141.096 211.219 141.191 211.046C141.637 210.1 140.945 208.398 140.754 206.932L136.407 207.059Z" fill="#37474F"/>
<path d="M133.637 209.163C133.637 209.163 130.071 208.934 127.612 208.635C125.152 208.335 123.202 209.517 123.775 210.518C124.348 211.519 125.709 212.354 127.827 213.055C129.633 213.662 131.807 214.095 133.685 214.631C135.564 215.167 136.869 215.868 137.96 215.49C139.178 215.073 139.703 214.592 139.599 213.709C139.334 212.454 139.004 211.213 138.612 209.99L133.637 209.163Z" fill="#37474F"/>
<path d="M141.191 203C141.191 203 140.746 206.672 140.714 207.46C140.682 208.248 137.092 208.501 136.407 207.059L136.296 202.567L141.191 203Z" fill="#F28F8F"/>
<path d="M137.578 205.254L138.859 210.833C138.859 210.833 138.979 211.511 136.049 211.944C133.12 212.378 128.519 210.423 127.731 210.029C126.943 209.635 126.855 208.839 129.737 208.997C132.618 209.155 133.637 209.163 133.637 209.163L132.698 206.696L137.578 205.254Z" fill="#FFA8A7"/>
<path d="M143.611 112.664L145.641 112.105C145.641 112.105 149.884 125.398 150.353 126.683C150.823 127.967 151.356 129.322 150.441 130.906C149.35 132.79 143.611 140.362 143.611 140.362L139.966 136.832L144.105 129.33L140.443 122.002L143.611 112.664Z" fill="#F28F8F"/>
<path d="M122.764 95.399C122.288 94.5146 122.047 93.5253 122.062 92.5234C122.077 91.5216 122.349 90.5399 122.852 89.6702C124.873 85.9587 129.379 84.1542 134.744 84.8398C137.227 85.1629 140.157 87.2038 141.757 90.2533C143.524 93.6339 143.691 100.442 144.145 103.019L122.764 95.399Z" fill="#37474F"/>
<path d="M122.621 96.8568C122.621 96.8568 121.347 99.2602 121.57 99.4809C121.9 99.6717 122.261 99.805 122.637 99.8749L122.621 96.8568Z" fill="#FFA8A7"/>
<path d="M126.489 89.2604C125.104 90.1508 122.716 91.7899 122.613 97.1877C122.501 102.704 123.297 104.524 124.125 105.162C124.682 105.596 127.954 105.375 129.355 105.052C130.756 104.729 134.792 102.751 136.248 99.7487C137.96 96.2184 137.609 91.0807 135.07 89.5047C133.778 88.7481 132.312 88.3288 130.812 88.2861C129.311 88.2434 127.823 88.5786 126.489 89.2604Z" fill="#FFA8A7"/>
<path d="M141.191 130.646C143.643 134.429 145.967 137.738 146.477 142.009C147.528 150.985 144.089 161.244 143.349 167.887C144.741 169.777 145.543 172.028 145.657 174.364C145.657 177.115 141.191 203 141.191 203C141.191 203 137.944 203.978 136.296 202.567L133.231 154.948L134.823 149.148L141.191 130.646Z" fill="#FF6600"/>
<path opacity="0.2" d="M141.191 130.646C143.643 134.429 145.967 137.738 146.477 142.009C147.528 150.985 144.089 161.244 143.349 167.887C144.741 169.777 145.543 172.028 145.657 174.364C145.657 177.115 141.191 203 141.191 203C141.191 203 137.944 203.978 136.296 202.567L133.231 154.948L134.823 149.148L141.191 130.646Z" fill="black"/>
<path d="M133.231 154.948L134.823 149.148C137.872 148.354 140.812 147.198 143.579 145.705C143.579 145.705 141.924 148.691 137.164 150.33L134.704 157.777L134.497 174.837L133.231 154.948Z" fill="#FF6600"/>
<path opacity="0.3" d="M133.231 154.948L134.823 149.148C137.872 148.354 140.812 147.198 143.579 145.705C143.579 145.705 141.924 148.691 137.164 150.33L134.704 157.777L134.497 174.837L133.231 154.948Z" fill="black"/>
<path d="M141.191 130.646C142.505 132.774 145.641 136.399 144.972 139.889C144.176 144.113 141.868 147.084 134.847 149.148L128.256 172.788C128.256 172.788 131.687 175.94 132.738 178.99C133.789 182.04 137.578 205.27 137.578 205.27C137.578 205.27 136.399 207.169 132.698 206.712C132.698 206.712 119.795 177.556 118.887 175.657C117.786 173.734 117.4 171.489 117.797 169.313C118.203 166.256 122.573 132.79 122.573 132.79L141.191 130.646Z" fill="#FF6600"/>
<path opacity="0.2" d="M141.191 130.646C142.505 132.774 145.641 136.399 144.972 139.889C144.176 144.113 141.868 147.084 134.847 149.148L128.256 172.788C128.256 172.788 131.687 175.94 132.738 178.99C133.789 182.04 137.578 205.27 137.578 205.27C137.578 205.27 136.399 207.169 132.698 206.712C132.698 206.712 119.795 177.556 118.887 175.657C117.786 173.734 117.4 171.489 117.797 169.313C118.203 166.256 122.573 132.79 122.573 132.79L141.191 130.646Z" fill="black"/>
<path d="M143.611 112.664L127.214 110.04C126.879 109.969 126.338 109.835 125.622 109.654C125.622 109.654 124.921 119.835 120.71 122.167C120.814 122.656 120.901 123.2 120.981 123.822C121.228 125.776 122.573 132.758 122.573 132.758C122.573 132.758 128.941 135.808 134.171 134.334C139.4 132.861 141.168 130.662 141.168 130.662L138.549 126.438C139.281 124.681 142.576 117.621 143.611 112.664Z" fill="#FF6600"/>
<path opacity="0.7" d="M143.611 112.664L127.214 110.04C126.879 109.969 126.338 109.835 125.622 109.654C125.622 109.654 124.921 119.835 120.71 122.167C120.814 122.656 120.901 123.2 120.981 123.822C121.228 125.776 122.573 132.758 122.573 132.758C122.573 132.758 128.941 135.808 134.171 134.334C139.4 132.861 141.168 130.662 141.168 130.662L138.549 126.438C139.281 124.681 142.576 117.621 143.611 112.664Z" fill="white"/>
<path d="M139.289 124.76C137.111 126.054 134.83 127.169 132.467 128.093C134.611 128.051 136.711 127.476 138.573 126.423L139.289 124.76Z" fill="#FF6600"/>
<path d="M126.083 89.5284C126.083 89.5284 125.287 94.6504 127.166 97.6605C127.166 97.6605 127.866 95.6196 129.61 96.0057C131.353 96.3919 131.448 98.6692 130.223 99.9457C129.911 100.304 129.504 100.568 129.048 100.707C128.591 100.846 128.105 100.856 127.643 100.734C127.643 100.734 127.365 104.437 127.214 107.542C127.062 110.647 126.235 117.416 129.761 120.15C133.287 122.884 142.139 123.846 146.286 118.109C148.594 114.918 145.53 109.276 144.105 102.948C142.791 97.1326 142.051 88.5119 135.818 87.125C129.586 85.7381 126.083 89.5284 126.083 89.5284Z" fill="#37474F"/>
</g>
</g>
</g>
<defs>
<clipPath id="clip0_206_1958">
<rect width="154" height="221" fill="white"/>
</clipPath>
<clipPath id="clip1_206_1958">
<rect width="154" height="221" fill="white"/>
</clipPath>
</defs>
</svg>
